<?xml version="1.0" encoding="UTF-8"?>
<svg id="Layer_1" data-name="Layer 1" xmlns="http://www.w3.org/2000/svg" viewBox="0 0 1920 606.35">
  <defs>
    <style>
      .cls-1 {
        fill: #64919d;
      }

      .cls-2 {
        fill: #ade4f2;
      }

      .cls-3 {
        fill: #88bac7;
      }

      .cls-4 {
        fill: #9acfdc;
      }

      .cls-5 {
        fill: #76a5b2;
      }
    </style>
  </defs>
  <path class="cls-2" d="m0,36.35l45.7-5.5c45.6-5.5,137-16.5,228.5-23.5C365.7.35,457.3-2.65,548.8,2.85s182.9,19.5,274.2,26.5,182.7,7,274,.5c91.3-6.5,182.7-19.5,274.2-21.2,91.5-1.6,183.1,8,274.6,15.2s182.9,11.8,228.5,14.2l45.7,2.3v98H0V36.35Z"/>
  <path class="cls-4" d="m0,40.35l45.7-1c45.6-1,137-3,228.5-7.3,91.5-4.4,183.1-11,274.6-8.2s182.9,15.2,274.2,17.5,182.7-5.3,274-3.2c91.3,2.2,182.7,14.2,274.2,16,91.5,1.9,183.1-6.5,274.6-7.1,91.5-.7,182.9,6.3,228.5,9.8l45.7,3.5v78H0V40.35Z"/>
  <path class="cls-3" d="m0,54.35l45.7-.8c45.6-.9,137-2.5,228.5-1.5,91.5,1,183.1,4.6,274.6,9.1s182.9,9.9,274.2,7c91.3-2.8,182.7-13.8,274-18.3,91.3-4.5,182.7-2.5,274.2,3.7,91.5,6.1,183.1,16.5,274.6,20.1,91.5,3.7,182.9.7,228.5-.8l45.7-1.5v67H0V54.35Z"/>
  <path class="cls-5" d="m0,94.35l45.7-1.5c45.6-1.5,137-4.5,228.5-8.8,91.5-4.4,183.1-10,274.6-11.4,91.5-1.3,182.9,1.7,274.2,3.9,91.3,2.1,182.7,3.5,274,6,91.3,2.5,182.7,6.1,274.2,7.1s183.1-.6,274.6-.1,182.9,3.1,228.5,4.5l45.7,1.3v43H0v-44Z"/>
  <path class="cls-1" d="m0,110.35l45.7-1.5c45.6-1.5,137-4.5,228.5-6.7,91.5-2.1,183.1-3.5,274.6-4.1,91.5-.7,182.9-.7,274.2-.9,91.3-.1,182.7-.5,274,0,91.3.5,182.7,1.9,274.2,3.5,91.5,1.7,183.1,3.7,274.6,4.7s182.9,1,228.5,1h45.7v32H0v-28Z"/>
  <rect class="cls-1" x=".5" y="122.35" width="1919" height="484"/>
</svg>