<svg id="visual" viewBox="0 0 5120 1440" width="5120" height="1440" xmlns="http://www.w3.org/2000/svg" xmlns:xlink="http://www.w3.org/1999/xlink" version="1.1"><path d="M0 920L121.8 931.5C243.7 943 487.3 966 731.2 984.3C975 1002.7 1219 1016.3 1462.8 1017.8C1706.7 1019.3 1950.3 1008.7 2194.2 983.5C2438 958.3 2682 918.7 2925.8 907.5C3169.7 896.3 3413.3 913.7 3657.2 927.7C3901 941.7 4145 952.3 4388.8 952.3C4632.7 952.3 4876.3 941.7 4998.2 936.3L5120 931L5120 1441L4998.2 1441C4876.3 1441 4632.7 1441 4388.8 1441C4145 1441 3901 1441 3657.2 1441C3413.3 1441 3169.7 1441 2925.8 1441C2682 1441 2438 1441 2194.2 1441C1950.3 1441 1706.7 1441 1462.8 1441C1219 1441 975 1441 731.2 1441C487.3 1441 243.7 1441 121.8 1441L0 1441Z" fill="#ade4f2"></path><path d="M0 1076L121.8 1054C243.7 1032 487.3 988 731.2 984.7C975 981.3 1219 1018.7 1462.8 1052C1706.7 1085.3 1950.3 1114.7 2194.2 1120.5C2438 1126.3 2682 1108.7 2925.8 1075.7C3169.7 1042.7 3413.3 994.3 3657.2 986.8C3901 979.3 4145 1012.7 4388.8 1018.7C4632.7 1024.7 4876.3 1003.3 4998.2 992.7L5120 982L5120 1441L4998.2 1441C4876.3 1441 4632.7 1441 4388.8 1441C4145 1441 3901 1441 3657.2 1441C3413.3 1441 3169.7 1441 2925.8 1441C2682 1441 2438 1441 2194.2 1441C1950.3 1441 1706.7 1441 1462.8 1441C1219 1441 975 1441 731.2 1441C487.3 1441 243.7 1441 121.8 1441L0 1441Z" fill="#9acfdc"></path><path d="M0 1081L121.8 1097C243.7 1113 487.3 1145 731.2 1169.7C975 1194.3 1219 1211.7 1462.8 1194.3C1706.7 1177 1950.3 1125 2194.2 1119.3C2438 1113.7 2682 1154.3 2925.8 1179.7C3169.7 1205 3413.3 1215 3657.2 1208.2C3901 1201.3 4145 1177.7 4388.8 1154C4632.7 1130.3 4876.3 1106.7 4998.2 1094.8L5120 1083L5120 1441L4998.2 1441C4876.3 1441 4632.7 1441 4388.8 1441C4145 1441 3901 1441 3657.2 1441C3413.3 1441 3169.7 1441 2925.8 1441C2682 1441 2438 1441 2194.2 1441C1950.3 1441 1706.7 1441 1462.8 1441C1219 1441 975 1441 731.2 1441C487.3 1441 243.7 1441 121.8 1441L0 1441Z" fill="#88bac7"></path><path d="M0 1170L121.8 1190.2C243.7 1210.3 487.3 1250.7 731.2 1249.2C975 1247.7 1219 1204.3 1462.8 1182.5C1706.7 1160.7 1950.3 1160.3 2194.2 1164.2C2438 1168 2682 1176 2925.8 1195.8C3169.7 1215.7 3413.3 1247.3 3657.2 1244.8C3901 1242.3 4145 1205.7 4388.8 1206.5C4632.7 1207.3 4876.3 1245.7 4998.2 1264.8L5120 1284L5120 1441L4998.2 1441C4876.3 1441 4632.7 1441 4388.8 1441C4145 1441 3901 1441 3657.2 1441C3413.3 1441 3169.7 1441 2925.8 1441C2682 1441 2438 1441 2194.2 1441C1950.3 1441 1706.7 1441 1462.8 1441C1219 1441 975 1441 731.2 1441C487.3 1441 243.7 1441 121.8 1441L0 1441Z" fill="#76a5b2"></path><path d="M0 1272L121.8 1283.2C243.7 1294.3 487.3 1316.7 731.2 1328.2C975 1339.7 1219 1340.3 1462.8 1344.3C1706.7 1348.3 1950.3 1355.7 2194.2 1353.8C2438 1352 2682 1341 2925.8 1334.5C3169.7 1328 3413.3 1326 3657.2 1319.7C3901 1313.3 4145 1302.7 4388.8 1310.5C4632.7 1318.3 4876.3 1344.7 4998.2 1357.8L5120 1371L5120 1441L4998.2 1441C4876.3 1441 4632.7 1441 4388.8 1441C4145 1441 3901 1441 3657.2 1441C3413.3 1441 3169.7 1441 2925.8 1441C2682 1441 2438 1441 2194.2 1441C1950.3 1441 1706.7 1441 1462.8 1441C1219 1441 975 1441 731.2 1441C487.3 1441 243.7 1441 121.8 1441L0 1441Z" fill="#64919d"></path></svg>