<svg id="visual" viewBox="0 0 1920 360" width="1920" height="360" xmlns="http://www.w3.org/2000/svg" xmlns:xlink="http://www.w3.org/1999/xlink" version="1.1"><path d="M0 259L45.7 253.5C91.3 248 182.7 237 274.2 230C365.7 223 457.3 220 548.8 225.5C640.3 231 731.7 245 823 252C914.3 259 1005.7 259 1097 252.5C1188.3 246 1279.7 233 1371.2 231.3C1462.7 229.7 1554.3 239.3 1645.8 246.5C1737.3 253.7 1828.7 258.3 1874.3 260.7L1920 263L1920 361L1874.3 361C1828.7 361 1737.3 361 1645.8 361C1554.3 361 1462.7 361 1371.2 361C1279.7 361 1188.3 361 1097 361C1005.7 361 914.3 361 823 361C731.7 361 640.3 361 548.8 361C457.3 361 365.7 361 274.2 361C182.7 361 91.3 361 45.7 361L0 361Z" fill="#ade4f2"></path><path d="M0 263L45.7 262C91.3 261 182.7 259 274.2 254.7C365.7 250.3 457.3 243.7 548.8 246.5C640.3 249.3 731.7 261.7 823 264C914.3 266.3 1005.7 258.7 1097 260.8C1188.3 263 1279.7 275 1371.2 276.8C1462.7 278.7 1554.3 270.3 1645.8 269.7C1737.3 269 1828.7 276 1874.3 279.5L1920 283L1920 361L1874.3 361C1828.7 361 1737.3 361 1645.8 361C1554.3 361 1462.7 361 1371.2 361C1279.7 361 1188.3 361 1097 361C1005.7 361 914.3 361 823 361C731.7 361 640.3 361 548.8 361C457.3 361 365.7 361 274.2 361C182.7 361 91.3 361 45.7 361L0 361Z" fill="#9acfdc"></path><path d="M0 277L45.7 276.2C91.3 275.3 182.7 273.7 274.2 274.7C365.7 275.7 457.3 279.3 548.8 283.8C640.3 288.3 731.7 293.7 823 290.8C914.3 288 1005.7 277 1097 272.5C1188.3 268 1279.7 270 1371.2 276.2C1462.7 282.3 1554.3 292.7 1645.8 296.3C1737.3 300 1828.7 297 1874.3 295.5L1920 294L1920 361L1874.3 361C1828.7 361 1737.3 361 1645.8 361C1554.3 361 1462.7 361 1371.2 361C1279.7 361 1188.3 361 1097 361C1005.7 361 914.3 361 823 361C731.7 361 640.3 361 548.8 361C457.3 361 365.7 361 274.2 361C182.7 361 91.3 361 45.7 361L0 361Z" fill="#88bac7"></path><path d="M0 317L45.7 315.5C91.3 314 182.7 311 274.2 306.7C365.7 302.3 457.3 296.7 548.8 295.3C640.3 294 731.7 297 823 299.2C914.3 301.3 1005.7 302.7 1097 305.2C1188.3 307.7 1279.7 311.3 1371.2 312.3C1462.7 313.3 1554.3 311.7 1645.8 312.2C1737.3 312.7 1828.7 315.3 1874.3 316.7L1920 318L1920 361L1874.3 361C1828.7 361 1737.3 361 1645.8 361C1554.3 361 1462.7 361 1371.2 361C1279.7 361 1188.3 361 1097 361C1005.7 361 914.3 361 823 361C731.7 361 640.3 361 548.8 361C457.3 361 365.7 361 274.2 361C182.7 361 91.3 361 45.7 361L0 361Z" fill="#76a5b2"></path><path d="M0 333L45.7 331.5C91.3 330 182.7 327 274.2 324.8C365.7 322.7 457.3 321.3 548.8 320.7C640.3 320 731.7 320 823 319.8C914.3 319.7 1005.7 319.3 1097 319.8C1188.3 320.3 1279.7 321.7 1371.2 323.3C1462.7 325 1554.3 327 1645.8 328C1737.3 329 1828.7 329 1874.3 329L1920 329L1920 361L1874.3 361C1828.7 361 1737.3 361 1645.8 361C1554.3 361 1462.7 361 1371.2 361C1279.7 361 1188.3 361 1097 361C1005.7 361 914.3 361 823 361C731.7 361 640.3 361 548.8 361C457.3 361 365.7 361 274.2 361C182.7 361 91.3 361 45.7 361L0 361Z" fill="#64919d"></path></svg>