<?xml version="1.0" encoding="UTF-8"?>
<svg id="Layer_1" data-name="Layer 1" xmlns="http://www.w3.org/2000/svg" viewBox="0 0 493.43 221.25">
  <defs>
    <style>
      .cls-1 {
        letter-spacing: -.04em;
      }

      .cls-2 {
        letter-spacing: -.01em;
      }

      .cls-3, .cls-4 {
        fill: #a87b54;
      }

      .cls-4 {
        font-family: SofiaPro-SemiBolditalic, 'Sofia Pro';
        font-size: 24px;
        font-style: italic;
        font-weight: 600;
      }

      .cls-5 {
        letter-spacing: 0em;
      }

      .cls-6 {
        letter-spacing: .02em;
      }
    </style>
  </defs>
  <path class="cls-3" d="m207.74,129.31H39.78c5.75,36.69,32.27,55.69,67.63,55.69,25.19,0,48.18-11.49,60.11-32.27l33.15,13.26c-17.68,35.8-54.81,55.25-94.59,55.25C47.29,221.25,0,177.49,0,112.07S47.29,4.23,106.08,4.23s102.54,42.43,102.54,107.85c0,5.75-.44,11.49-.88,17.24Zm-37.57-33.15c-4.86-35.36-30.06-55.69-64.09-55.69s-59.67,18.56-65.86,55.69h129.95Z"/>
  <g>
    <path class="cls-3" d="m220.77,18.29h6.77l-14.04,33.63h-6.12l-13.97-33.63h6.7l10.37,25.63,10.3-25.63Z"/>
    <path class="cls-3" d="m264.83,37.8h-27.36c.94,5.98,5.26,9.07,11.02,9.07,4.1,0,7.85-1.87,9.79-5.26l5.4,2.16c-2.88,5.83-8.93,9-15.41,9-9.58,0-17.28-7.13-17.28-17.79s7.7-17.57,17.28-17.57,16.71,6.91,16.71,17.57c0,.94-.07,1.87-.14,2.81Zm-6.12-5.4c-.79-5.76-4.9-9.07-10.44-9.07s-9.72,3.02-10.73,9.07h21.17Z"/>
    <path class="cls-3" d="m295.14,18.72l-1.01,5.9c-1.8-.86-3.6-1.15-4.9-1.15-6.7,0-9.36,7.27-9.36,16.13v12.31h-6.34V18.29h6.34v7.63c1.73-5.9,4.97-8.5,9.43-8.5,2.38,0,4.82.65,5.83,1.3Z"/>
    <path class="cls-3" d="m324.37,18.29h6.77l-20.88,49.97h-6.62l7.06-17.35-13.54-32.62h6.77l10.15,24.77,10.3-24.77Z"/>
    <path class="cls-3" d="m353.68,18.29v5.4h-7.27v28.23h-6.26v-28.23h-6.05v-5.4h6.05V5.62h6.26v12.67h7.27Z"/>
    <path class="cls-3" d="m391.62,32.47v19.44h-6.26v-19.08c0-5.62-3.46-9.22-8.14-9.22s-10.3,2.81-10.3,10.08v18.22h-6.26V0h6.26v23.4c2.02-4.1,7.49-5.98,11.16-5.98,8.35,0,13.61,5.62,13.54,15.05Z"/>
    <path class="cls-3" d="m400.76,5.9c0-2.38,2.02-4.18,4.39-4.18s4.46,1.8,4.46,4.18-2.02,4.18-4.46,4.18-4.39-1.8-4.39-4.18Zm1.3,46.01V18.29h6.26v33.63h-6.26Z"/>
    <path class="cls-3" d="m450.16,32.47v19.44h-6.26v-19.08c0-5.62-3.46-9.22-8.14-9.22s-10.3,2.81-10.3,10.08v18.22h-6.26V18.29h6.26v5.11c2.02-4.1,7.49-5.98,11.16-5.98,8.35,0,13.61,5.62,13.54,15.05Z"/>
    <path class="cls-3" d="m487.16,18.29h6.26v28.95c0,15.91-7.2,21.89-18.29,21.89-6.12,0-11.81-3.1-15.12-9l5.33-2.81c2.09,3.82,6.05,5.9,9.79,5.9,7.42,0,12.03-4.18,12.03-15.55v-1.01c-2.23,3.82-7.13,6.12-11.95,6.12-9.22,0-16.85-7.13-16.85-17.71s7.56-17.64,16.78-17.64c5.04,0,9.79,2.23,12.03,6.12v-5.26Zm0,16.71c0-7.27-5.9-11.67-11.45-11.67-6.12,0-11.02,4.9-11.02,11.67s4.9,11.88,11.02,11.88,11.45-4.68,11.45-11.88Z"/>
  </g>
  <text class="cls-4" transform="translate(288.44 99.17)"><tspan x="0" y="0">in it</tspan><tspan class="cls-1" x="40.27" y="0">’</tspan><tspan x="45.53" y="0">s rig</tspan><tspan class="cls-5" x="92.71" y="0">h</tspan><tspan x="106.49" y="0">t pl</tspan><tspan class="cls-6" x="141.41" y="0">a</tspan><tspan class="cls-2" x="156.55" y="0">c</tspan><tspan x="168.65" y="0">e...</tspan></text>
</svg>