<?xml version="1.0" encoding="UTF-8"?><svg id="Layer_1" xmlns="http://www.w3.org/2000/svg" viewBox="0 0 172.5 75"><path d="M148.93,62h-39.74c-6.11,0-11.07-4.96-11.07-11.07v-1.86c0-6.11,4.96-11.07,11.07-11.07h39.74c3.83,0,7.2,1.94,9.19,4.89v-1.09c0-9.28-7.52-16.8-16.8-16.8h-41.03c-7.89,0-14.29,6.4-14.29,14.29v21.17c0,7.98,6.47,14.45,14.45,14.45h40.87c9.28,0,16.8-7.52,16.8-16.8v-1c-1.99,2.95-5.36,4.89-9.19,4.89Z"/><path d="M144.67,0h-58.67V15.22h53.45c8.86,0,16.05,7.23,16.05,16.16v43.24h17V28.02C172.5,12.55,160.04,0,144.67,0Z"/><polygon points="0 0 0 15 65 15 65 75 81 75 81 0 0 0"/></svg>